<mxfile host="app.diagrams.net" agent="Mozilla/5.0 (Windows NT 10.0; Win64; x64) AppleWebKit/537.36 (KHTML, like Gecko) Chrome/140.0.0.0 Safari/537.36 Edg/140.0.0.0" version="28.2.3">
  <diagram name="ページ1" id="J7TG5u-xjuHJJes_AuBO">
    <mxGraphModel dx="1216" dy="671" grid="1" gridSize="10" guides="1" tooltips="1" connect="1" arrows="1" fold="1" page="1" pageScale="1" pageWidth="827" pageHeight="1169" math="0" shadow="0">
      <root>
        <mxCell id="0" />
        <mxCell id="1" parent="0" />
        <mxCell id="jG-xPbcKmgWNk0eKFv7Z-1" value="事務職員" style="shape=umlActor;verticalLabelPosition=bottom;verticalAlign=top;html=1;" vertex="1" parent="1">
          <mxGeometry x="100" y="220" width="40" height="70" as="geometry" />
        </mxCell>
        <mxCell id="jG-xPbcKmgWNk0eKFv7Z-2" value="システムメニュー画面" style="shape=umlBoundary;whiteSpace=wrap;html=1;fillColor=#d5e8d4;strokeColor=#82b366;" vertex="1" parent="1">
          <mxGeometry x="250" y="90" width="100" height="80" as="geometry" />
        </mxCell>
        <mxCell id="jG-xPbcKmgWNk0eKFv7Z-3" value="図書システム" style="ellipse;shape=umlEntity;whiteSpace=wrap;html=1;fillColor=#dae8fc;strokeColor=#6c8ebf;" vertex="1" parent="1">
          <mxGeometry x="950" y="430" width="80" height="80" as="geometry" />
        </mxCell>
        <mxCell id="jG-xPbcKmgWNk0eKFv7Z-4" value="登録画面表示" style="ellipse;shape=umlControl;whiteSpace=wrap;html=1;fillColor=#f8cecc;strokeColor=#b85450;" vertex="1" parent="1">
          <mxGeometry x="370" y="190" width="70" height="80" as="geometry" />
        </mxCell>
        <mxCell id="jG-xPbcKmgWNk0eKFv7Z-6" value="" style="endArrow=open;endFill=1;endSize=12;html=1;rounded=0;exitX=0.63;exitY=0.28;exitDx=0;exitDy=0;exitPerimeter=0;entryX=0.26;entryY=0.86;entryDx=0;entryDy=0;entryPerimeter=0;" edge="1" parent="1" source="jG-xPbcKmgWNk0eKFv7Z-1" target="jG-xPbcKmgWNk0eKFv7Z-2">
          <mxGeometry width="160" relative="1" as="geometry">
            <mxPoint x="330" y="300" as="sourcePoint" />
            <mxPoint x="490" y="300" as="targetPoint" />
          </mxGeometry>
        </mxCell>
        <mxCell id="jG-xPbcKmgWNk0eKFv7Z-7" value="システムメニューから会員登録をクリック" style="text;html=1;align=center;verticalAlign=middle;resizable=0;points=[];autosize=1;strokeColor=none;fillColor=none;" vertex="1" parent="1">
          <mxGeometry x="10" y="150" width="250" height="30" as="geometry" />
        </mxCell>
        <mxCell id="jG-xPbcKmgWNk0eKFv7Z-8" value="" style="endArrow=open;endFill=1;endSize=12;html=1;rounded=0;exitX=0.952;exitY=0.78;exitDx=0;exitDy=0;exitPerimeter=0;entryX=0.16;entryY=0.25;entryDx=0;entryDy=0;entryPerimeter=0;" edge="1" parent="1" source="jG-xPbcKmgWNk0eKFv7Z-2" target="jG-xPbcKmgWNk0eKFv7Z-4">
          <mxGeometry width="160" relative="1" as="geometry">
            <mxPoint x="370" y="381" as="sourcePoint" />
            <mxPoint x="521" y="300" as="targetPoint" />
          </mxGeometry>
        </mxCell>
        <mxCell id="jG-xPbcKmgWNk0eKFv7Z-9" value="登録画面" style="shape=umlBoundary;whiteSpace=wrap;html=1;fillColor=#d5e8d4;strokeColor=#82b366;" vertex="1" parent="1">
          <mxGeometry x="355" y="370" width="100" height="80" as="geometry" />
        </mxCell>
        <mxCell id="jG-xPbcKmgWNk0eKFv7Z-10" value="" style="endArrow=open;endFill=1;endSize=12;html=1;rounded=0;exitX=0.514;exitY=1.03;exitDx=0;exitDy=0;exitPerimeter=0;entryX=0.582;entryY=0;entryDx=0;entryDy=0;entryPerimeter=0;" edge="1" parent="1" source="jG-xPbcKmgWNk0eKFv7Z-4" target="jG-xPbcKmgWNk0eKFv7Z-9">
          <mxGeometry width="160" relative="1" as="geometry">
            <mxPoint x="430" y="360" as="sourcePoint" />
            <mxPoint x="546" y="438" as="targetPoint" />
          </mxGeometry>
        </mxCell>
        <mxCell id="jG-xPbcKmgWNk0eKFv7Z-11" value="" style="endArrow=open;endFill=1;endSize=12;html=1;rounded=0;entryX=0.23;entryY=0.32;entryDx=0;entryDy=0;entryPerimeter=0;" edge="1" parent="1" source="jG-xPbcKmgWNk0eKFv7Z-1" target="jG-xPbcKmgWNk0eKFv7Z-9">
          <mxGeometry width="160" relative="1" as="geometry">
            <mxPoint x="200" y="460" as="sourcePoint" />
            <mxPoint x="316" y="538" as="targetPoint" />
          </mxGeometry>
        </mxCell>
        <mxCell id="jG-xPbcKmgWNk0eKFv7Z-12" value="学生番号または教職員番号を入力" style="text;html=1;align=center;verticalAlign=middle;resizable=0;points=[];autosize=1;strokeColor=none;fillColor=none;" vertex="1" parent="1">
          <mxGeometry x="90" y="330" width="200" height="30" as="geometry" />
        </mxCell>
        <mxCell id="jG-xPbcKmgWNk0eKFv7Z-14" value="入力内容検証処理" style="ellipse;shape=umlControl;whiteSpace=wrap;html=1;fillColor=#f8cecc;strokeColor=#b85450;" vertex="1" parent="1">
          <mxGeometry x="560" y="430" width="70" height="80" as="geometry" />
        </mxCell>
        <mxCell id="jG-xPbcKmgWNk0eKFv7Z-15" value="" style="endArrow=open;endFill=1;endSize=12;html=1;rounded=0;exitX=0.87;exitY=0.88;exitDx=0;exitDy=0;exitPerimeter=0;entryX=0.063;entryY=0.47;entryDx=0;entryDy=0;entryPerimeter=0;" edge="1" parent="1" source="jG-xPbcKmgWNk0eKFv7Z-9" target="jG-xPbcKmgWNk0eKFv7Z-14">
          <mxGeometry width="160" relative="1" as="geometry">
            <mxPoint x="380" y="570" as="sourcePoint" />
            <mxPoint x="387" y="668" as="targetPoint" />
          </mxGeometry>
        </mxCell>
        <mxCell id="jG-xPbcKmgWNk0eKFv7Z-16" value="値を送信" style="text;html=1;align=center;verticalAlign=middle;resizable=0;points=[];autosize=1;strokeColor=none;fillColor=none;" vertex="1" parent="1">
          <mxGeometry x="470" y="420" width="70" height="30" as="geometry" />
        </mxCell>
        <mxCell id="jG-xPbcKmgWNk0eKFv7Z-17" value="" style="endArrow=open;endFill=1;endSize=12;html=1;rounded=0;exitX=0.566;exitY=0.06;exitDx=0;exitDy=0;exitPerimeter=0;entryX=0.903;entryY=0.83;entryDx=0;entryDy=0;entryPerimeter=0;" edge="1" parent="1" source="jG-xPbcKmgWNk0eKFv7Z-14" target="jG-xPbcKmgWNk0eKFv7Z-4">
          <mxGeometry width="160" relative="1" as="geometry">
            <mxPoint x="490" y="560" as="sourcePoint" />
            <mxPoint x="612" y="588" as="targetPoint" />
            <Array as="points" />
          </mxGeometry>
        </mxCell>
        <mxCell id="jG-xPbcKmgWNk0eKFv7Z-18" value="入力内容に誤り(数字以外を検知など)" style="text;html=1;align=center;verticalAlign=middle;resizable=0;points=[];autosize=1;strokeColor=none;fillColor=none;" vertex="1" parent="1">
          <mxGeometry x="470" y="300" width="220" height="30" as="geometry" />
        </mxCell>
        <mxCell id="jG-xPbcKmgWNk0eKFv7Z-19" value="" style="endArrow=open;endFill=1;endSize=12;html=1;rounded=0;exitX=1.011;exitY=0.49;exitDx=0;exitDy=0;exitPerimeter=0;entryX=-0.006;entryY=0.52;entryDx=0;entryDy=0;entryPerimeter=0;" edge="1" parent="1" source="jG-xPbcKmgWNk0eKFv7Z-14" target="jG-xPbcKmgWNk0eKFv7Z-20">
          <mxGeometry width="160" relative="1" as="geometry">
            <mxPoint x="700" y="390" as="sourcePoint" />
            <mxPoint x="760" y="390" as="targetPoint" />
          </mxGeometry>
        </mxCell>
        <mxCell id="jG-xPbcKmgWNk0eKFv7Z-20" value="登録処理" style="ellipse;shape=umlControl;whiteSpace=wrap;html=1;fillColor=#f8cecc;strokeColor=#b85450;" vertex="1" parent="1">
          <mxGeometry x="740" y="430" width="70" height="80" as="geometry" />
        </mxCell>
        <mxCell id="jG-xPbcKmgWNk0eKFv7Z-22" value="" style="endArrow=block;startArrow=block;endFill=1;startFill=1;html=1;rounded=0;entryX=0;entryY=0.5;entryDx=0;entryDy=0;exitX=1.023;exitY=0.52;exitDx=0;exitDy=0;exitPerimeter=0;" edge="1" parent="1" source="jG-xPbcKmgWNk0eKFv7Z-20" target="jG-xPbcKmgWNk0eKFv7Z-3">
          <mxGeometry width="160" relative="1" as="geometry">
            <mxPoint x="630" y="330" as="sourcePoint" />
            <mxPoint x="790" y="330" as="targetPoint" />
          </mxGeometry>
        </mxCell>
        <mxCell id="jG-xPbcKmgWNk0eKFv7Z-23" value="登録結果" style="text;html=1;align=center;verticalAlign=middle;resizable=0;points=[];autosize=1;strokeColor=none;fillColor=none;" vertex="1" parent="1">
          <mxGeometry x="840" y="440" width="70" height="30" as="geometry" />
        </mxCell>
        <mxCell id="jG-xPbcKmgWNk0eKFv7Z-24" value="登録成功表示処理" style="ellipse;shape=umlControl;whiteSpace=wrap;html=1;fillColor=#f8cecc;strokeColor=#b85450;" vertex="1" parent="1">
          <mxGeometry x="840" y="260" width="70" height="80" as="geometry" />
        </mxCell>
        <mxCell id="jG-xPbcKmgWNk0eKFv7Z-25" value="" style="endArrow=open;endFill=1;endSize=12;html=1;rounded=0;exitX=0.737;exitY=0.23;exitDx=0;exitDy=0;exitPerimeter=0;entryX=0.246;entryY=0.985;entryDx=0;entryDy=0;entryPerimeter=0;" edge="1" parent="1" source="jG-xPbcKmgWNk0eKFv7Z-20" target="jG-xPbcKmgWNk0eKFv7Z-24">
          <mxGeometry width="160" relative="1" as="geometry">
            <mxPoint x="720" y="360" as="sourcePoint" />
            <mxPoint x="829" y="363" as="targetPoint" />
          </mxGeometry>
        </mxCell>
        <mxCell id="jG-xPbcKmgWNk0eKFv7Z-27" value="成功" style="text;html=1;align=center;verticalAlign=middle;resizable=0;points=[];autosize=1;strokeColor=none;fillColor=none;" vertex="1" parent="1">
          <mxGeometry x="790" y="370" width="50" height="30" as="geometry" />
        </mxCell>
        <mxCell id="jG-xPbcKmgWNk0eKFv7Z-29" value="登録失敗表示処理" style="ellipse;shape=umlControl;whiteSpace=wrap;html=1;fillColor=#f8cecc;strokeColor=#b85450;" vertex="1" parent="1">
          <mxGeometry x="680" y="210" width="70" height="80" as="geometry" />
        </mxCell>
        <mxCell id="jG-xPbcKmgWNk0eKFv7Z-30" value="" style="endArrow=open;endFill=1;endSize=12;html=1;rounded=0;exitX=0.246;exitY=0.26;exitDx=0;exitDy=0;exitPerimeter=0;entryX=0.743;entryY=0.945;entryDx=0;entryDy=0;entryPerimeter=0;" edge="1" parent="1" source="jG-xPbcKmgWNk0eKFv7Z-20" target="jG-xPbcKmgWNk0eKFv7Z-29">
          <mxGeometry width="160" relative="1" as="geometry">
            <mxPoint x="710" y="489" as="sourcePoint" />
            <mxPoint x="775" y="380" as="targetPoint" />
          </mxGeometry>
        </mxCell>
        <mxCell id="jG-xPbcKmgWNk0eKFv7Z-32" value="失敗" style="text;html=1;align=center;verticalAlign=middle;resizable=0;points=[];autosize=1;strokeColor=none;fillColor=none;" vertex="1" parent="1">
          <mxGeometry x="700" y="378" width="50" height="30" as="geometry" />
        </mxCell>
        <mxCell id="jG-xPbcKmgWNk0eKFv7Z-33" value="" style="endArrow=open;endFill=1;endSize=12;html=1;rounded=0;exitX=-0.04;exitY=0.51;exitDx=0;exitDy=0;exitPerimeter=0;entryX=0.971;entryY=0.5;entryDx=0;entryDy=0;entryPerimeter=0;" edge="1" parent="1" source="jG-xPbcKmgWNk0eKFv7Z-29" target="jG-xPbcKmgWNk0eKFv7Z-4">
          <mxGeometry width="160" relative="1" as="geometry">
            <mxPoint x="560" y="180" as="sourcePoint" />
            <mxPoint x="567" y="278" as="targetPoint" />
          </mxGeometry>
        </mxCell>
        <mxCell id="jG-xPbcKmgWNk0eKFv7Z-34" value="" style="endArrow=open;endFill=1;endSize=12;html=1;rounded=0;exitX=0.773;exitY=0.163;exitDx=0;exitDy=0;exitPerimeter=0;entryX=0.295;entryY=0.873;entryDx=0;entryDy=0;entryPerimeter=0;" edge="1" parent="1" source="jG-xPbcKmgWNk0eKFv7Z-24" target="jG-xPbcKmgWNk0eKFv7Z-35">
          <mxGeometry width="160" relative="1" as="geometry">
            <mxPoint x="1159" y="211" as="sourcePoint" />
            <mxPoint x="970" y="200" as="targetPoint" />
          </mxGeometry>
        </mxCell>
        <mxCell id="jG-xPbcKmgWNk0eKFv7Z-35" value="登録成功画面" style="shape=umlBoundary;whiteSpace=wrap;html=1;fillColor=#d5e8d4;strokeColor=#82b366;" vertex="1" parent="1">
          <mxGeometry x="970" y="110" width="100" height="80" as="geometry" />
        </mxCell>
      </root>
    </mxGraphModel>
  </diagram>
</mxfile>
